<svg width="44" height="9" viewBox="0 0 44 9" fill="none" xmlns="http://www.w3.org/2000/svg">
<path d="M5.87158 6.95053C5.48927 7.63018 4.51073 7.63018 4.12842 6.95053L1.33827 1.99026C0.963308 1.32366 1.44502 0.5 2.20985 0.5L7.79015 0.5C8.55498 0.5 9.03669 1.32366 8.66173 1.99026L5.87158 6.95053Z" fill="white"/>
<path d="M22.8716 6.95053C22.4893 7.63018 21.5107 7.63018 21.1284 6.95053L18.3383 1.99026C17.9633 1.32366 18.445 0.5 19.2098 0.5L24.7902 0.5C25.555 0.5 26.0367 1.32366 25.6617 1.99026L22.8716 6.95053Z" fill="white"/>
<path d="M39.8716 6.95053C39.4893 7.63018 38.5107 7.63018 38.1284 6.95053L35.3383 1.99026C34.9633 1.32366 35.445 0.5 36.2098 0.5L41.7902 0.5C42.555 0.5 43.0367 1.32366 42.6617 1.99026L39.8716 6.95053Z" fill="white"/>
</svg>
