<?xml version="1.0" encoding="utf-8"?>
<!-- Generator: Adobe Illustrator 16.0.0, SVG Export Plug-In . SVG Version: 6.00 Build 0)  -->
<!DOCTYPE svg PUBLIC "-//W3C//DTD SVG 1.1//EN" "http://www.w3.org/Graphics/SVG/1.1/DTD/svg11.dtd">
<svg version="1.1" id="Layer_1" xmlns="http://www.w3.org/2000/svg" xmlns:xlink="http://www.w3.org/1999/xlink" x="0px" y="0px"
	 width="20px" height="20px" viewBox="0 0 20 20" enable-background="new 0 0 20 20" xml:space="preserve">
<path fill="#999999" d="M8.597,17.973c0,0.373-0.302,0.676-0.675,0.676H4.949c-1.489,0-2.702-1.212-2.702-2.702V4.056
	c0-1.491,1.212-2.703,2.702-2.703h8.307c1.489,0,2.702,1.212,2.702,2.703v6.452c0,0.372-0.303,0.675-0.676,0.675
	s-0.676-0.303-0.676-0.675V4.056c0-0.745-0.605-1.351-1.351-1.351H4.949c-0.745,0-1.351,0.606-1.351,1.351v11.891
	c0,0.745,0.606,1.352,1.351,1.352h2.973C8.295,17.298,8.597,17.6,8.597,17.973z M12.579,5.406H5.622
	c-0.375,0-0.677,0.303-0.677,0.675c0,0.375,0.302,0.677,0.677,0.677h6.957c0.374,0,0.677-0.302,0.677-0.677
	C13.256,5.709,12.953,5.406,12.579,5.406z M13.256,8.785c0-0.373-0.303-0.675-0.677-0.675H5.622c-0.375,0-0.677,0.302-0.677,0.675
	c0,0.373,0.302,0.675,0.677,0.675h6.957C12.953,9.46,13.256,9.157,13.256,8.785z M5.622,10.811c-0.375,0-0.677,0.303-0.677,0.677
	c0,0.373,0.302,0.676,0.677,0.676h3.55c0.373,0,0.675-0.303,0.675-0.676c0-0.374-0.302-0.677-0.675-0.677H5.622z M17.629,15.76
	c-0.023,0.034-0.105,0.149-0.155,0.213c-0.228,0.285-0.757,0.951-1.493,1.539c-0.945,0.754-1.918,1.137-2.891,1.137
	c-0.972,0-1.945-0.383-2.89-1.137c-0.737-0.588-1.267-1.254-1.493-1.539c-0.05-0.063-0.132-0.179-0.156-0.213
	c-0.164-0.232-0.164-0.544,0-0.776c0.024-0.034,0.105-0.149,0.156-0.213c0.226-0.284,0.755-0.95,1.493-1.539
	c0.944-0.754,1.918-1.137,2.89-1.137c0.973,0,1.945,0.383,2.891,1.137c0.736,0.589,1.266,1.255,1.493,1.539
	c0.05,0.063,0.132,0.179,0.155,0.213C17.793,15.216,17.793,15.527,17.629,15.76z M16.22,15.372c-1.073-1.278-2.126-1.926-3.13-1.926
	c-1.003,0-2.055,0.647-3.129,1.926c1.074,1.277,2.126,1.926,3.129,1.926C14.094,17.298,15.146,16.649,16.22,15.372z M13.125,14.088
	c-0.709,0-1.284,0.575-1.284,1.284s0.575,1.283,1.284,1.283c0.708,0,1.282-0.574,1.282-1.283S13.833,14.088,13.125,14.088z"/>
</svg>
