<?xml version="1.0" encoding="utf-8"?>
<!-- Generator: Adobe Illustrator 16.0.0, SVG Export Plug-In . SVG Version: 6.00 Build 0)  -->
<!DOCTYPE svg PUBLIC "-//W3C//DTD SVG 1.1//EN" "http://www.w3.org/Graphics/SVG/1.1/DTD/svg11.dtd">
<svg version="1.1" id="Layer_1" xmlns="http://www.w3.org/2000/svg" xmlns:xlink="http://www.w3.org/1999/xlink" x="0px" y="0px"
	 width="20px" height="20px" viewBox="0 0 20 20" enable-background="new 0 0 20 20" xml:space="preserve">
<g>
	<path fill="#999999" d="M10.648,1.606h-0.431c-0.23,0-0.417-0.187-0.417-0.417V1.175c0-0.534-0.434-0.968-0.968-0.968H8.81
		c-0.535,0-0.968,0.434-0.968,0.968v0.014c0,0.23-0.187,0.417-0.417,0.417H6.994c-0.459,0-0.831,0.372-0.831,0.831v0.017
		c0,0.459,0.372,0.832,0.831,0.832h3.654c0.459,0,0.831-0.372,0.831-0.832V2.437C11.479,1.978,11.107,1.606,10.648,1.606z
		 M8.821,1.606c-0.232,0-0.419-0.188-0.419-0.42s0.188-0.419,0.419-0.419c0.231,0,0.419,0.188,0.419,0.419S9.052,1.606,8.821,1.606z
		 M10.688,17.834H3.646c-0.619,0-1.12-0.5-1.12-1.119V3.285c0-0.618,0.501-1.119,0.839-1.119h2.268
		C5.613,2.259,5.603,2.355,5.603,2.454c0,0.768,0.624,1.391,1.391,1.391h3.654c0.767,0,1.39-0.624,1.39-1.408
		c0-0.093-0.01-0.184-0.027-0.271h1.707c0.897,0,1.399,0.501,1.399,1.119v8.409c-0.095-0.007-0.186-0.015-0.28-0.015
		c-0.389,0-0.761,0.056-1.119,0.147V5.244H3.924v11.191h6.45C10.404,16.927,10.512,17.398,10.688,17.834z M14.837,12.518
		c-2.009,0-3.638,1.628-3.638,3.637c0,2.011,1.629,3.639,3.638,3.639s3.637-1.628,3.637-3.639
		C18.474,14.146,16.846,12.518,14.837,12.518z M17.213,15.408l-2.238,2.52c-0.11,0.123-0.264,0.188-0.419,0.188
		c-0.121,0-0.245-0.042-0.348-0.123l-1.398-1.121c-0.243-0.191-0.282-0.542-0.088-0.785c0.192-0.241,0.544-0.282,0.786-0.088
		l0.983,0.787l1.886-2.122c0.205-0.229,0.559-0.249,0.79-0.046C17.396,14.823,17.418,15.176,17.213,15.408z M12.319,9.999H7.841
		c-0.154,0-0.279-0.125-0.279-0.279V9.44c0-0.155,0.125-0.28,0.279-0.28h4.478c0.153,0,0.279,0.125,0.279,0.28V9.72
		C12.599,9.875,12.473,9.999,12.319,9.999z M12.319,7.482H7.841c-0.154,0-0.279-0.126-0.279-0.28V6.921
		c0-0.153,0.125-0.279,0.279-0.279h4.478c0.153,0,0.279,0.125,0.279,0.279v0.281C12.599,7.356,12.473,7.482,12.319,7.482z
		 M10.92,12.237H7.841c-0.154,0-0.279-0.125-0.279-0.278v-0.28c0-0.153,0.125-0.28,0.279-0.28h3.079c0.155,0,0.279,0.127,0.279,0.28
		v0.28C11.199,12.112,11.075,12.237,10.92,12.237z M10.36,14.757H7.841c-0.154,0-0.279-0.127-0.279-0.278v-0.28
		c0-0.156,0.125-0.283,0.279-0.283h2.519c0.155,0,0.279,0.127,0.279,0.283v0.28C10.64,14.63,10.515,14.757,10.36,14.757z
		 M7.026,6.447l-1.031,1.16c-0.051,0.057-0.12,0.086-0.192,0.086c-0.057,0-0.114-0.019-0.161-0.056L4.998,7.121
		C4.887,7.032,4.869,6.87,4.958,6.759c0.089-0.111,0.25-0.128,0.362-0.04l0.452,0.362l0.869-0.976
		C6.736,5.999,6.898,5.99,7.004,6.083C7.111,6.178,7.121,6.34,7.026,6.447z M7.026,8.937l-1.031,1.159
		c-0.051,0.057-0.12,0.086-0.192,0.086c-0.057,0-0.114-0.019-0.161-0.056L4.998,9.61c-0.111-0.088-0.129-0.25-0.04-0.362
		c0.089-0.11,0.25-0.129,0.362-0.04l0.452,0.363l0.869-0.978c0.095-0.106,0.257-0.116,0.363-0.021
		C7.111,8.667,7.121,8.83,7.026,8.937z M7.026,11.317l-1.031,1.156c-0.051,0.059-0.12,0.09-0.192,0.09
		c-0.057,0-0.114-0.019-0.161-0.059L4.998,11.99c-0.111-0.09-0.129-0.251-0.04-0.361s0.25-0.129,0.362-0.04l0.452,0.361l0.869-0.977
		c0.095-0.105,0.257-0.116,0.363-0.021C7.111,11.048,7.121,11.211,7.026,11.317z M7.026,13.714l-1.031,1.159
		c-0.051,0.058-0.12,0.087-0.192,0.087c-0.057,0-0.114-0.021-0.161-0.058l-0.644-0.516c-0.111-0.087-0.129-0.249-0.04-0.359
		c0.089-0.114,0.25-0.131,0.362-0.041l0.452,0.361l0.869-0.977c0.095-0.105,0.257-0.114,0.363-0.019
		C7.111,13.446,7.121,13.61,7.026,13.714z"/>
</g>
</svg>
